# xmcd
#
# Track frame offsets:
#	150
#	16037
#	29570
#	41380
#	56400
#	71610
#	89850
#	100572
#	116550
#	134950
#	151585
#	164710
#
# Disc length: 2411
#
# Revision: 1
# Processed by: cddbd v1.5.1PL0 Copyright (c) Steve Scherf et al.
# Submitted via: dBpowerAMP V4.0
# Normalized: r0:TDELIM( - ),TSWAP
#
DISCID=9e09690c
DTITLE=Variouse Artis - We The People
DYEAR=1900
DGENRE=Country
TTITLE0=Trace Adkins - 01 There's A Girl In Texas
TTITLE1=Trace Adkins - 02 Every Light In The House Is On
TTITLE2=Suzy Bogguss - 03 Give Me Some Wheels
TTITLE3=Suzy Bogguss - 04 No Way Out
TTITLE4=Billy Dean - 05 It's what  I Do
TTITLE5=Billy Dean - 06 When Our Backs Are Agaeinst The Wall
TTITLE6=Lisa Brokop - 07 Before He Kissed Me
TTITLE7=Lisa Brokop - 08 West Of Crazy
TTITLE8=Chris Le Doux - 09 Gravitational Pull
TTITLE9=Chris Le Doux - 10 Five Dollar Fine
TTITLE10=Shenendoah - 11 All Over But The Shoutin'
TTITLE11=Shenendoah - 12 Deeper Than That
EXTD=
EXTT0=
EXTT1=
EXTT2=
EXTT3=
EXTT4=
EXTT5=
EXTT6=
EXTT7=
EXTT8=
EXTT9=
EXTT10=
EXTT11=
PLAYORDER=
